<svg aria-hidden="true" style="position: absolute; width: 0; height: 0; overflow: hidden;" version="1.1" xmlns="http://www.w3.org/2000/svg" xmlns:xlink="http://www.w3.org/1999/xlink">
<defs>
<symbol id="logo" viewBox="0 0 29 32">
<path fill="#fff" style="fill: var(--color1, #fff)" d="M0.901 9.831l-0.901-1.329 14.235-8.502 10.778 6.252-1.516 0.875-9.246-5.378-13.35 8.082z"></path>
<path fill="#fff" style="fill: var(--color1, #fff)" d="M14.525 32l-11.083-6.122 1.105-1.121 9.95 5.509 12.916-7.635 1.516 0.75-14.404 8.619z"></path>
<path fill="#fff" style="fill: var(--color1, #fff)" d="M28.929 23.381l-1.516-0.75-0.043-11.632-12.987 7.493-12.862-7.361-0.006 11.749-1.51 0.459-0.006-14.838 14.372 8.231 14.514-8.346 0.043 14.994z"></path>
</symbol>
<symbol id="line" viewBox="0 0 29 32">
<path fill="#fff" style="fill: var(--color1, #fff)" opacity="0.5" d="M-0 31.135l27.676-31.135 0.796 0.339-27.676 31.135-0.796-0.339z"></path>
</symbol>
<symbol id="send">
<path fill="#00338e" style="fill: var(--color2, #00338e)" d="M-0 31.113l20.704-31.113 0.793 0.401-20.704 31.113-0.793-0.401z"></path>
<path fill="#00338e" style="fill: var(--color2, #00338e)" d="M30.387 20.656c2.297 0 3.929-1.209 3.929-3.249 0-2.236-1.798-2.796-3.4-3.279-1.647-0.499-1.904-0.831-1.904-1.315 0-0.423 0.378-0.801 1.133-0.801 0.967 0 1.466 0.468 1.828 1.224l2.040-1.194c-0.771-1.556-2.131-2.388-3.868-2.388-1.828 0-3.551 1.179-3.551 3.219 0 2.025 1.541 2.78 3.113 3.219 1.587 0.438 2.191 0.695 2.191 1.345 0 0.408-0.287 0.861-1.436 0.861-1.194 0-1.844-0.589-2.221-1.466l-2.085 1.209c0.589 1.556 2.010 2.614 4.231 2.614zM37.868 18.117v-1.874h3.778v-2.297h-3.778v-1.753h4.156v-2.327h-6.573v10.578h6.649v-2.327h-4.231zM49.356 9.867v5.742l-4.080-5.742h-1.813v10.578h2.418v-5.742l4.080 5.742h1.813v-10.578h-2.418zM57.817 9.867h-4.231v10.578h4.231c2.916 0 5.138-2.297 5.138-5.289s-2.221-5.289-5.138-5.289zM57.817 18.117h-1.813v-5.924h1.813c1.662 0 2.811 1.148 2.811 2.962s-1.148 2.962-2.811 2.962z"></path>
</symbol>
<symbol id="hex" viewBox="0 0 30 32">
<path fill="#fff" style="fill: var(--color1, #fff)" d="M14.981 30.958l-13.75-7.764v-13.975l13.751-8.196 13.326 8.208v13.952l-13.327 7.776zM14.961 28.119l10.885-6.351v-11.163l-10.886-6.704-11.268 6.716v11.14l11.269 6.363z"></path>
</symbol>
</defs>
</svg>
